# xmcd
#
# Track frame offsets:
#	150
#	22494
#	44302
#	72557
#	87837
#	108680
#	128390
#	145212
#	159702
#	184812
#	198922
#	216917
#
# Disc length: 3112 seconds
#
# Revision: 0
# Processed by: cddbd v1.5.1PL0 Copyright (c) Steve Scherf et al.
# Submitted via: dBpowerAMP V4.0
#
DISCID=b50c260c
DTITLE=The Funksmasters - Find the groove
DYEAR=2004
DGENRE=Funk
TTITLE0=01Find the groove
TTITLE1=02Lucky
TTITLE2=03Party's in the kitchen1
TTITLE3=04Party's in the kitchen2
TTITLE4=05Computer man
TTITLE5=06Sock it to me
TTITLE6=07Something you got
TTITLE7=08Since i meet you baby
TTITLE8=09summertime
TTITLE9=10Hog for you baby
TTITLE10=11Proud mary
TTITLE11=12Jab'o' Groove
EXTD=
EXTT0=
EXTT1=
EXTT2=
EXTT3=
EXTT4=
EXTT5=
EXTT6=
EXTT7=
EXTT8=
EXTT9=
EXTT10=
EXTT11=
PLAYORDER=
